<svg xmlns="http://www.w3.org/2000/svg" width="700" height="320" viewBox="0 0 700 320"><rect width="700" height="320" fill="#f8f8f8" stroke="#333" stroke-width="2"/><rect x="30" y="30" width="120" height="260" fill="#1f77b4" fill-opacity="0.15" stroke="#666" stroke-dasharray="4 3"/><text x="38" y="48" font-family="Arial" font-size="12" fill="#555" font-weight="600">RECEIVING</text><rect x="160" y="30" width="220" height="260" fill="#2ca02c" fill-opacity="0.15" stroke="#666" stroke-dasharray="4 3"/><text x="168" y="48" font-family="Arial" font-size="12" fill="#555" font-weight="600">STORAGE (aisles B–C)</text><rect x="390" y="30" width="60" height="260" fill="#ff7f0e" fill-opacity="0.15" stroke="#666" stroke-dasharray="4 3"/><text x="398" y="48" font-family="Arial" font-size="12" fill="#555" font-weight="600">PACKING</text><rect x="460" y="30" width="210" height="260" fill="#d62728" fill-opacity="0.15" stroke="#666" stroke-dasharray="4 3"/><text x="468" y="48" font-family="Arial" font-size="12" fill="#555" font-weight="600">SHIPPING</text><line x1="170" x2="170" y1="50" y2="270" stroke="#bbb" stroke-width="1"/><line x1="190" x2="190" y1="50" y2="270" stroke="#bbb" stroke-width="1"/><line x1="210" x2="210" y1="50" y2="270" stroke="#bbb" stroke-width="1"/><line x1="230" x2="230" y1="50" y2="270" stroke="#bbb" stroke-width="1"/><line x1="250" x2="250" y1="50" y2="270" stroke="#bbb" stroke-width="1"/><line x1="270" x2="270" y1="50" y2="270" stroke="#bbb" stroke-width="1"/><line x1="290" x2="290" y1="50" y2="270" stroke="#bbb" stroke-width="1"/><line x1="310" x2="310" y1="50" y2="270" stroke="#bbb" stroke-width="1"/><line x1="330" x2="330" y1="50" y2="270" stroke="#bbb" stroke-width="1"/><rect x="660" y="52" width="30" height="16" fill="#eee" stroke="#666"/><text x="675" y="64" font-family="Arial" font-size="10" text-anchor="middle" fill="#666">DOCK</text><rect x="660" y="112" width="30" height="16" fill="#eee" stroke="#666"/><text x="675" y="124" font-family="Arial" font-size="10" text-anchor="middle" fill="#666">DOCK</text><rect x="660" y="172" width="30" height="16" fill="#eee" stroke="#666"/><text x="675" y="184" font-family="Arial" font-size="10" text-anchor="middle" fill="#666">DOCK</text><rect x="660" y="232" width="30" height="16" fill="#eee" stroke="#666"/><text x="675" y="244" font-family="Arial" font-size="10" text-anchor="middle" fill="#666">DOCK</text><text x="220" y="300" font-family="Arial" font-size="10" fill="#888">Aisle B</text><text x="300" y="300" font-family="Arial" font-size="10" fill="#888">Aisle C</text></svg>